<svg xmlns="http://www.w3.org/2000/svg" width="15.352" height="15.352" viewBox="0 0 15.352 15.352">
  <path id="Caminho_463" data-name="Caminho 463" d="M86.292-40.41H74.01a1.535,1.535,0,0,0-1.535,1.535v12.281a1.535,1.535,0,0,0,1.535,1.535H86.292a1.535,1.535,0,0,0,1.535-1.535V-38.875A1.535,1.535,0,0,0,86.292-40.41Zm-3.07,10.746v1.535H77.081v-1.535a3.061,3.061,0,0,1,1.048-2.306,3.055,3.055,0,0,1-1.048-2.3,3.073,3.073,0,0,1,3.07-3.07,3.073,3.073,0,0,1,3.07,3.07,3.055,3.055,0,0,1-1.048,2.3A3.061,3.061,0,0,1,83.221-29.664Z" transform="translate(-72.475 40.41)" fill="#1875f0"/>
</svg>
