<svg xmlns="http://www.w3.org/2000/svg" xmlns:xlink="http://www.w3.org/1999/xlink" width="874" height="267" viewBox="0 0 874 267">
  <defs>
    <clipPath id="clip-path">
      <rect id="Ret칙ngulo_1498" data-name="Ret칙ngulo 1498" width="874" height="267" rx="8" transform="translate(2136 560)" fill="none"/>
    </clipPath>
  </defs>
  <g id="Grupo_de_m치scara_2" data-name="Grupo de m치scara 2" transform="translate(-2136 -560)" clip-path="url(#clip-path)">
    <g id="icon-totais-de-venda">
      <path id="Caminho_510" data-name="Caminho 510" d="M-144.576,367.577v-37.6l-24.564,24.564-4.763,4.763v31.332h29.578v-23.06Zm-8.522,0v14.789h-12.784V362.815c1-.752,1.755-1.755,2.507-2.256l10.277-10.277Zm40.607-6.768-6.266-6.266L-133.3,340.256v50.633h29.578v-9.776h0V369.081s-4.762-4.512-6.768-6.266Zm.251,20.053v1.253h-12.784V360.058l.5.5,6.266,6.266,1.755,1.755c1,1,2.757,2.757,4.261,4.011v8.272Zm48.878-33.839v-9.274L-86.925,360.81l-1.755,1.755c-1.253,1.253-4.261,4.011-4.261,4.011v14.288h0v9.776h29.578V347.024Zm-8.272,33.839v1.253H-84.419V370.335l1.755-1.755,1.755-1.755,9.274-9.024v23.061Zm23.812-58.9-2.507,2.507-1.755,1.755v64.168h29.578v-93.5Zm16.794,9.024v51.134H-43.812V329.728l1.755-1.755,11.029-11.029ZM-93.693,223.7v9.525h11.781V241.5h-20.554a6.1,6.1,0,0,0-6.016,6.016,6.1,6.1,0,0,0,6.016,6.016h9.274a14.549,14.549,0,0,1,14.538,14.538A14.549,14.549,0,0,1-93.192,282.6h-.5v10.778h-8.272V282.6H-114v-8.272h21.055a6.1,6.1,0,0,0,6.016-6.016,6.1,6.1,0,0,0-6.016-6.016h-9.274a14.549,14.549,0,0,1-14.538-14.538,14.549,14.549,0,0,1,14.538-14.538h.5V223.7Zm71.437,16.794a14.816,14.816,0,0,0-14.789,14.789A16.138,16.138,0,0,0-35.29,262.3l-57.4,57.4a13.29,13.29,0,0,0-7.018-1.755,16.138,16.138,0,0,0-7.018,1.755l-22.81-22.81a15.058,15.058,0,0,0,1.755-6.768,14.816,14.816,0,0,0-14.789-14.789,14.816,14.816,0,0,0-14.789,14.789,17.074,17.074,0,0,0,1.755,7.018l-14.287,14.288a13.29,13.29,0,0,0-7.018-1.755A14.816,14.816,0,0,0-191.7,324.464a14.816,14.816,0,0,0,14.789,14.789,14.816,14.816,0,0,0,14.789-14.789,16.137,16.137,0,0,0-1.755-7.018l14.037-14.037a15.105,15.105,0,0,0,7.269,2.005,15.313,15.313,0,0,0,7.52-2.005l22.559,22.559a13.29,13.29,0,0,0-1.755,7.018,14.816,14.816,0,0,0,14.789,14.789,14.981,14.981,0,0,0,14.789-14.789,16.138,16.138,0,0,0-1.755-7.018l57.4-57.4A13.29,13.29,0,0,0-22,270.322,14.816,14.816,0,0,0-7.216,255.534,15.084,15.084,0,0,0-22.255,240.494Zm-154.906,90.487a6.636,6.636,0,0,1-6.517-6.517,6.636,6.636,0,0,1,6.517-6.517,6.636,6.636,0,0,1,6.517,6.517A6.633,6.633,0,0,1-177.162,330.981Zm34.34-34.089a6.636,6.636,0,0,1-6.517-6.517,6.636,6.636,0,0,1,6.517-6.517,6.636,6.636,0,0,1,6.517,6.517A6.636,6.636,0,0,1-142.822,296.892ZM-99.709,339.5a6.636,6.636,0,0,1-6.517-6.517,6.636,6.636,0,0,1,6.517-6.517,6.636,6.636,0,0,1,6.517,6.517A6.472,6.472,0,0,1-99.709,339.5Zm77.453-77.453a6.636,6.636,0,0,1-6.517-6.517,6.636,6.636,0,0,1,6.517-6.517,6.636,6.636,0,0,1,6.517,6.517A6.472,6.472,0,0,1-22.255,262.051Z" transform="translate(2376.983 445.453)" fill="#034193"/>
    </g>
  </g>
</svg>
