<svg xmlns="http://www.w3.org/2000/svg" width="24.089" height="24.089" viewBox="0 0 24.089 24.089">
  <g id="icon-date" transform="translate(0 -5.964)">
    <rect id="Retângulo_557" data-name="Retângulo 557" width="24.089" height="24.089" transform="translate(0 5.964)" fill="none"/>
    <path id="Caminho_149" data-name="Caminho 149" d="M3.011,7.528v13.55h0ZM19.572,3.011h3.011a1.422,1.422,0,0,1,1.506,1.506V22.583a1.422,1.422,0,0,1-1.506,1.506H1.506A1.422,1.422,0,0,1,0,22.583V4.517A1.422,1.422,0,0,1,1.506,3.011H4.517V1.506A1.422,1.422,0,0,1,6.022,0,1.422,1.422,0,0,1,7.528,1.506V3.011h9.033V1.506a1.506,1.506,0,1,1,3.011,0ZM18.067,18.067H15.056V15.056h3.011Zm-4.517,0H10.539V15.056H13.55Zm4.517-4.517H15.056V10.539h3.011Zm-4.517,0H10.539V10.539H13.55ZM9.033,18.067H6.022V15.056H9.033Z" transform="translate(0 5.964)" fill="#4d4f5c" fill-rule="evenodd"/>
  </g>
</svg>
