<svg xmlns="http://www.w3.org/2000/svg" width="36.003" height="36.003" viewBox="0 0 36.003 36.003">
  <g id="icon_graficos" transform="translate(-4.31 0)">
    <path id="União_8" data-name="União 8" d="M29.253,36A2.126,2.126,0,0,1,27,33.753V13.5a2.126,2.126,0,0,1,2.252-2.25h4.5A2.126,2.126,0,0,1,36,13.5V33.753A2.126,2.126,0,0,1,33.753,36Zm-13.5,0a2.125,2.125,0,0,1-2.25-2.25V2.25A2.126,2.126,0,0,1,15.752,0h4.5A2.126,2.126,0,0,1,22.5,2.25v31.5A2.125,2.125,0,0,1,20.251,36ZM2.25,36A2.126,2.126,0,0,1,0,33.753v-9A2.128,2.128,0,0,1,2.25,22.5h4.5A2.128,2.128,0,0,1,9,24.753v9A2.126,2.126,0,0,1,6.75,36Z" transform="translate(4.31 0)" fill="#bcbccb"/>
  </g>
</svg>
