<svg xmlns="http://www.w3.org/2000/svg" width="32.452" height="32.586" viewBox="0 0 32.452 32.586">
  <g id="icon_attached" transform="translate(-8.62)">
    <path id="Caminho_362" data-name="Caminho 362" d="M29.772,2.814A10.4,10.4,0,0,0,22.81,0a10.122,10.122,0,0,0-6.962,2.814,2.228,2.228,0,0,0-.592,1.629,3.106,3.106,0,0,0,.592,1.629,2.228,2.228,0,0,0,1.629.592h0a3.106,3.106,0,0,0,1.629-.592,5.546,5.546,0,0,1,7.7,0,6.246,6.246,0,0,1,1.333,3.7,5.379,5.379,0,0,1-1.629,3.851L13.627,26.513a5.546,5.546,0,0,1-7.7,0,5.539,5.539,0,0,1-1.481-3.7,5.379,5.379,0,0,1,1.629-3.851l5.48-5.48a1.611,1.611,0,0,1,2.222,0,1.8,1.8,0,0,1,0,2.37l-4,4a2.228,2.228,0,0,0-.592,1.629,3.106,3.106,0,0,0,.592,1.629,2.455,2.455,0,0,0,3.111,0l4-4a6.079,6.079,0,0,0,0-8.591,5.932,5.932,0,0,0-4.3-1.777,5.261,5.261,0,0,0-4.147,1.629l-5.48,5.48A9.4,9.4,0,0,0,0,22.81a10.122,10.122,0,0,0,2.814,6.962,10.4,10.4,0,0,0,6.962,2.814,10.122,10.122,0,0,0,6.962-2.814L29.624,16.886a9.5,9.5,0,0,0,2.814-6.962A9.7,9.7,0,0,0,29.772,2.814Z" transform="translate(8.62)" fill="#bcbccb"/>
  </g>
</svg>
