<svg xmlns="http://www.w3.org/2000/svg" width="17" height="15.526" viewBox="0 0 17 15.526">
  <g id="Icon-Empresa" transform="translate(-316 -319.648)">
    <path id="Caminho_462" data-name="Caminho 462" d="M15.689,7.879l-.569-.221h0l-1.355-.522-1.548-.6-1.393-.541L9.606,5.518a1.045,1.045,0,0,0-.763,0L2.767,7.879a.89.89,0,0,0-.488.85V19.236H1.6a.871.871,0,1,0,0,1.731H16.857a.871.871,0,0,0,0-1.731h-.679V8.729A.89.89,0,0,0,15.689,7.879Zm-7.145,10.2-4.887.127V16.987L8.551,16.6Zm0-2.944-4.887.639V14.554l4.894-.895Zm0-2.944L3.656,13.339V12.12l4.894-1.407Zm0-2.944L3.656,10.907v-1.2l4.887-1.9Z" transform="translate(315.367 314.202)" fill="#1875f0"/>
  </g>
</svg>
