<svg xmlns="http://www.w3.org/2000/svg" width="96.303" height="41.37" viewBox="0 0 96.303 41.37">
  <g id="logo-SIEG" transform="translate(-18.659 -20.089)">
    <path id="Caminho_266" data-name="Caminho 266" d="M71.38,143.189l2-6.011c-2.4-2.046-23.686-5.845-23.9,6.587-.473,6.638,3.044,10.321,9.81,10.117,9.822-.192,6.74,5.615,1.484,5.32-3.76-.038-5.819-.576-9.8-1.42l-1.867,5.87c3.862,2.1,7.239,2.417,12.751,2.289,9.183-.077,11.779-4.643,12.674-9.119.627-9.413-9.8-9.95-11.536-9.912C52.489,147.7,56.531,137.766,71.38,143.189Z" transform="translate(-30.1 -114.613)" fill="#009ccf" fill-rule="evenodd"/>
    <path id="Caminho_267" data-name="Caminho 267" d="M71.38,143.189l2-6.011c-2.4-2.046-23.686-5.845-23.9,6.587-.473,6.638,3.044,10.321,9.81,10.117,9.822-.192,6.74,5.615,1.484,5.32-3.76-.038-5.819-.576-9.8-1.42l-1.867,5.87c3.862,2.1,7.239,2.417,12.751,2.289,9.183-.077,11.779-4.643,12.674-9.119.627-9.413-9.8-9.95-11.536-9.912C52.489,147.7,56.531,137.766,71.38,143.189Z" transform="translate(-30.1 -114.613)" fill="none" stroke="#009ccf" stroke-miterlimit="7.661" stroke-width="0.566" fill-rule="evenodd"/>
    <path id="Caminho_268" data-name="Caminho 268" d="M290.488,139.8l-8.288.141v29.173l8.288.1Z" transform="translate(-233.387 -118.809)" fill="#009ccf" fill-rule="evenodd"/>
    <path id="Caminho_269" data-name="Caminho 269" d="M290.488,139.8l-8.288.141v29.173l8.288.1Z" transform="translate(-233.387 -118.809)" fill="none" stroke="#009ccf" stroke-miterlimit="7.661" stroke-width="0.566" fill-rule="evenodd"/>
    <path id="Caminho_270" data-name="Caminho 270" d="M423.667,139.9l-22.267.038V169.5h21.845v-6.587h-13.16v-4.758l11.447-.1-.192-6.958-11.357.192-.09-4.579,13.736-.077Z" transform="translate(-337.342 -118.896)" fill="#009ccf" fill-rule="evenodd"/>
    <path id="Caminho_271" data-name="Caminho 271" d="M423.667,139.9l-22.267.038V169.5h21.845v-6.587h-13.16v-4.758l11.447-.1-.192-6.958-11.357.192-.09-4.579,13.736-.077Z" transform="translate(-337.342 -118.896)" fill="none" stroke="#009ccf" stroke-miterlimit="7.661" stroke-width="0.566" fill-rule="evenodd"/>
    <path id="Caminho_272" data-name="Caminho 272" d="M621.329,143.966l1.906-6.113c-5.883-1.752-7.1-1.752-11.063-1.752-11.447,1.164-13.723,6.433-13.34,15.987-.217,12.8,7.265,14.35,13.531,14.567a29.237,29.237,0,0,0,11.8-2.481v-12.2l-8.85-.09.089,7.149c-2.635,1.113-7.367,1.752-7.623-2.392C606.557,145.488,606.442,140.257,621.329,143.966Z" transform="translate(-509.489 -115.582)" fill="#009ccf" fill-rule="evenodd"/>
    <path id="Caminho_273" data-name="Caminho 273" d="M621.329,143.966l1.906-6.113c-5.883-1.752-7.1-1.752-11.063-1.752-11.447,1.164-13.723,6.433-13.34,15.987-.217,12.8,7.265,14.35,13.531,14.567a29.237,29.237,0,0,0,11.8-2.481v-12.2l-8.85-.09.089,7.149c-2.635,1.113-7.367,1.752-7.623-2.392C606.557,145.488,606.442,140.257,621.329,143.966Z" transform="translate(-509.489 -115.582)" fill="none" stroke="#009ccf" stroke-miterlimit="7.661" stroke-width="0.566" fill-rule="evenodd"/>
    <text id="S_O_L_U_Ç_Õ_E_S" data-name="S O L U Ç Õ E S" transform="translate(22.185 60.459)" fill="#0f0f0c" font-size="5" font-family="Calibri"><tspan x="0" y="0">S O L U Ç Õ E S</tspan></text>
    <text id="I_N_T_E_L_I_G_E_N_T_E_S" data-name="I N T E L I G E N T E S" transform="translate(62.549 60.293)" fill="#0f0f0c" font-size="5" font-family="Calibri"><tspan x="0" y="0">I N T E L I G E N T E S</tspan></text>
  </g>
</svg>
